<mxfile host="app.diagrams.net" modified="2020-11-03T21:52:03.061Z" agent="5.0 (X11)" etag="JlWcd-jYGK5Ou8TFbc7N" version="13.8.9" type="github">
  <diagram id="qThYz0hHPXlsY4hFAhnQ" name="Page-1">
    <mxGraphModel dx="1098" dy="604" grid="1" gridSize="10" guides="1" tooltips="1" connect="1" arrows="1" fold="1" page="1" pageScale="1" pageWidth="827" pageHeight="1169" math="0" shadow="0">
      <root>
        <mxCell id="0" />
        <mxCell id="1" parent="0" />
        <mxCell id="dDyNsK3mXUEXD5AMddpR-5" style="edgeStyle=orthogonalEdgeStyle;rounded=0;orthogonalLoop=1;jettySize=auto;html=1;exitX=1;exitY=0.25;exitDx=0;exitDy=0;entryX=0;entryY=0.5;entryDx=0;entryDy=0;" edge="1" parent="1" source="dDyNsK3mXUEXD5AMddpR-2" target="dDyNsK3mXUEXD5AMddpR-8">
          <mxGeometry relative="1" as="geometry">
            <mxPoint x="430" y="330" as="targetPoint" />
          </mxGeometry>
        </mxCell>
        <mxCell id="dDyNsK3mXUEXD5AMddpR-2" value="&lt;font data-font-src=&quot;https://fonts.googleapis.com/css?family=Montserrat&quot; face=&quot;Montserrat&quot;&gt;&lt;b&gt;OpenFaaS Core&lt;/b&gt;&lt;/font&gt;" style="shape=ext;double=1;whiteSpace=wrap;html=1;aspect=fixed;" vertex="1" parent="1">
          <mxGeometry x="150" y="230" width="180" height="180" as="geometry" />
        </mxCell>
        <mxCell id="dDyNsK3mXUEXD5AMddpR-10" style="edgeStyle=orthogonalEdgeStyle;rounded=0;orthogonalLoop=1;jettySize=auto;html=1;exitX=1;exitY=0.5;exitDx=0;exitDy=0;entryX=0;entryY=0.5;entryDx=0;entryDy=0;" edge="1" parent="1" source="dDyNsK3mXUEXD5AMddpR-4" target="dDyNsK3mXUEXD5AMddpR-9">
          <mxGeometry relative="1" as="geometry" />
        </mxCell>
        <mxCell id="dDyNsK3mXUEXD5AMddpR-11" style="edgeStyle=orthogonalEdgeStyle;rounded=0;orthogonalLoop=1;jettySize=auto;html=1;" edge="1" parent="1" source="dDyNsK3mXUEXD5AMddpR-4">
          <mxGeometry relative="1" as="geometry">
            <mxPoint x="655" y="420" as="targetPoint" />
          </mxGeometry>
        </mxCell>
        <mxCell id="dDyNsK3mXUEXD5AMddpR-4" value="&lt;font data-font-src=&quot;https://fonts.googleapis.com/css?family=Montserrat&quot; face=&quot;Montserrat&quot;&gt;&lt;b&gt;Workflow function (faas-flow)&lt;br&gt;&lt;/b&gt;&lt;/font&gt;" style="shape=ext;double=1;whiteSpace=wrap;html=1;aspect=fixed;" vertex="1" parent="1">
          <mxGeometry x="600" y="220" width="110" height="110" as="geometry" />
        </mxCell>
        <mxCell id="dDyNsK3mXUEXD5AMddpR-7" value="" style="shape=image;imageAspect=0;aspect=fixed;verticalLabelPosition=bottom;verticalAlign=top;image=https://camo.githubusercontent.com/cf01eefb5b6905f3774376d6d1ed55b8f052d211/68747470733a2f2f626c6f672e616c6578656c6c69732e696f2f636f6e74656e742f696d616765732f323031372f30382f666161735f736964652e706e67;" vertex="1" parent="1">
          <mxGeometry x="180" y="300" width="128.93" height="30" as="geometry" />
        </mxCell>
        <mxCell id="dDyNsK3mXUEXD5AMddpR-14" style="edgeStyle=orthogonalEdgeStyle;rounded=0;orthogonalLoop=1;jettySize=auto;html=1;entryX=0;entryY=0.5;entryDx=0;entryDy=0;" edge="1" parent="1" source="dDyNsK3mXUEXD5AMddpR-8" target="dDyNsK3mXUEXD5AMddpR-4">
          <mxGeometry relative="1" as="geometry" />
        </mxCell>
        <mxCell id="dDyNsK3mXUEXD5AMddpR-16" style="edgeStyle=orthogonalEdgeStyle;rounded=0;orthogonalLoop=1;jettySize=auto;html=1;exitX=0.75;exitY=1;exitDx=0;exitDy=0;entryX=0;entryY=0.25;entryDx=0;entryDy=0;" edge="1" parent="1" source="dDyNsK3mXUEXD5AMddpR-8" target="dDyNsK3mXUEXD5AMddpR-12">
          <mxGeometry relative="1" as="geometry" />
        </mxCell>
        <mxCell id="dDyNsK3mXUEXD5AMddpR-8" value="" style="shape=image;imageAspect=0;aspect=fixed;verticalLabelPosition=bottom;verticalAlign=top;image=https://miro.medium.com/max/920/1*ZmBWab8bx1zexvLdyuV6Mw.png;" vertex="1" parent="1">
          <mxGeometry x="440" y="330" width="81.41" height="20" as="geometry" />
        </mxCell>
        <mxCell id="dDyNsK3mXUEXD5AMddpR-9" value="" style="shape=image;imageAspect=0;aspect=fixed;verticalLabelPosition=bottom;verticalAlign=top;image=https://miro.medium.com/max/360/1*t0bwCemk8FrY09qKWR9VgA.png;" vertex="1" parent="1">
          <mxGeometry x="800" y="270" width="115.79" height="110" as="geometry" />
        </mxCell>
        <mxCell id="dDyNsK3mXUEXD5AMddpR-15" style="edgeStyle=orthogonalEdgeStyle;rounded=0;orthogonalLoop=1;jettySize=auto;html=1;exitX=0;exitY=0.5;exitDx=0;exitDy=0;entryX=0.5;entryY=1;entryDx=0;entryDy=0;" edge="1" parent="1" source="dDyNsK3mXUEXD5AMddpR-12" target="dDyNsK3mXUEXD5AMddpR-8">
          <mxGeometry relative="1" as="geometry" />
        </mxCell>
        <mxCell id="dDyNsK3mXUEXD5AMddpR-12" value="" style="shape=image;imageAspect=0;aspect=fixed;verticalLabelPosition=bottom;verticalAlign=top;image=data:image/png,iVBORw0KGgoAAAANSUhEUgAAAJQAAAByCAIAAAA6Q28cAAAXGklEQVR4nO19W5cdx3Xe9+2q7nPO3DDAEAABkqB4ES8WY1uiJYWiKVlatuU4Xn5xVvKSx/wI+y/4R+jVWVn2WlmKlUQymUh0tCJSsm4RZd5JkQQJEAQwHMzlnO6u/eWhus8c3GZwGc7xEOdbwEzjnOrqRu3au/atdjGlBJCUlECj6IQTFDJEmGBA/oDYV0gAIZenVJTlf//Od771rW/91V/+5Rd+74vJGyPJfX6jq94QAEDA25fl+EOBBpk3YJQZ3A2QGSQStz+WEQ6hAR0S6QAlii4YAEggXBi/mHbrcY+RHysYXPLfeeJz9528+4H774M3UJKgaRMPEERBAkDlvxJF1IgBqaeRgEZlkACXDBIB3PabR8hp9FAkCJCBQRbHNCIAiEgk80DuL9ROaggS7Mg9J7/6zT/pLS83wQxBEPf9la4FtUwmqWM7AxqYw6BmcsqTkCYk222Atfs75y79ZnXd5xcBBnkQKOZxy0JLzBfb1LvmBbo22Itm2xdCItS9QkqKgXJF2tW93ezTr9f+5psJoBNi5juPwmg4PHmo/+jReUgpFMFlcDECe8R5ifxw5L+6aK+8eWEkRjUCEsMkuUww33+u24ZPcH1mRAM41VcaoyWh0BjrANFFjyn1gEeXFwax0vFlS3VQXp0tr4TwPRAZsZBKS5UVr56/uNpYpCg4QsfXzMJc3EOmusFm2+07SdAKnXyhW+z2imZ7xnvmlgwpJKkuUjPPcN+RY17AJRKkJE0Iyz1Yg6LRgxqjWSjIKJM5oqwTU63Uctum5r5CWRC16i4nfrYLx9SZL08iwhKj2NAVisLqwkUxASLpUF6MKOQVci/0rCiEmgVJJgTJlAgkyLISxVYliH7Zu+4rLlOetn+aLvt2mmjpJ8lisoocET2BJsINoKg8gBQIOWh78NgoCIJEksyLCdjNkakbUQcDWavKEx3IZjPRaZUCxLHORwjknkhNRGZaUeqsj3Yeqb1oJfoVYn/foIlHX4E9GoLbhbbHh5l6EsbD2dFTY+Vy7147ttMBZPsHrUHHVlXA2CiZyjBNysrrfTtdcEJsUpnn8mKjdmnW2NpSNui3jYsrOYPbbppOQbs+4s5vlZe9dkLNcD2om2NiVhOUP8wyDXlFIiCjsuuK4MS8VPdLY5naaos7PnYn4rVKuqCxWSJM2OtXMH8n0z8BU2FPu72i2R6YCpmPnACz70t5vZPE9nciDJ3TI4vaiQVhm3nbhXI8qLfMeUDrsHMqmdNpLd+TcNBbOT5er2HbdtgdQzx160wyCaDDBDoNkhwSlYCRaEABZD9oNvtaV5myn9pbgSoTzDKBd1YYdxObIKjgKJvgzDMjC1IZHJ147v4fRrR+rDuFdC1EEXBzFMlSoCvFJENIZGIwlkDIXn7IkLmCkggmoRJNZg4KwcCSrZ1262Kze0MBJuR5ZW4QScGUtC2WJRA0dP6P8c27Xtxgs5ttv4/dCoJIojGKzENOBVIK7m2sCIISASJ0QhIApSagloIjGkOCCFKZM7DzqrfbmgdCaIxuMEhepboiPNuEl7ft7Hlds7NPP1xNdHmKNZBQBwlcNjmMsMIRrFUbrrDPS6AMYADkKuSSK4QJPea62FVhgTlEuYlNdWyuuHflrrJpSNTBLlOUQEwtZDtNtEwkunkQTDYyJfq8p14vnh01v3j/vEsVY44ZuUIXFW3tsEgwVYf64TN3HY5IpIDAtu/bMhXaSHpwhGp0/PDgyZNHfWPLiVGMY/dnR7M7lHj5f9tQJppsFORIA/eq1utb4fT6Ru0YhUhlh1YbUxBAmSiyHqThZ5Zw7NjheXkbMRJ2dXDtQrxMigBBaMzk3tT636+8e6ZiDwZJxr0IKx5sZBHVXbX/pEtmbjQJhLiJCVuBmS9EGajRUw+eeKTn80pBbBBj19lt2XkU3GAuN/PsgTFWwhbo2XXgM/cngMmVvqULAHn2k41XlivuEAWZKE+edcDWjgBIc/ht2HlE6xrLcUS2zjoYaSSsc6PNcCVaNmxzfkwTvHlFI4KwnADGccaCOitil8fsYiqwk78CctfZXy3Bb2RJvaNBAMypYruPUedYbm/M+Xy73LOrnZc7y8ycXa/Ibp9MPOx/PtkBgXJ4TdjBMdxKrrGSx+ywGd+wC81viHjKHle1ftfW3zrjuB2QxZ9aB9r15ndOOgvjW7K+I13lobo2bpB4EEy07D13GoWg9rU+IT/WQXGPXbPZdm7frlN8TNhPiPMIest26hzmaMNShk58XuOBV394y80OXrc3xDy35ZC6IeJlZaWTm2BOxOgiCjNcFzeizt2GQ/EGiUcgR9q3J9WN8vadjE94aPYiiWmGKWFGvAOMGfEOMGbEO8CYEe8AY0a8A4wZ8Q4wZsQ7wJgR7wBjRrwDjBnxDjBmxDvAmBHvAGNGvAOMGfEOMGbEO8CYEe8A4wYj6Z8MJva7X/nNv5AaK/+yMT3i7ZjQ2FL0su2Lt0fO60+Uazc/CLNnesTrRmfn/E92WTyXpc3c2uOwvckD18r64UTG0O0+bl8wVc4DgC6F8IovJyY+r/rkFh/HXH+oxTV7Gn8447wdMd7s5LAJEcruerswXFdcaG+IN+7/mm/UfTsj3o7odkHnWgqTwnOiDhQw3u6GPROb291ehfG3M7G5M3IFhbbgD7stMeNM3nzRFZUZV0nOlQuQd7F193Tb2lpuZddVbtyWkmkLO2/n6JOXbSPgWJBj3LPa3PX2H/lRVNt6StV/x5i2nXdZvrAkydvtGVeyxvUVRU7+6pqNE/4vG1pddiFB2xupJpbgXTZXbe9tnS6mxnkS0e1do9SAFssiRkrJU5Oqrny05O3uC0mwjl2257wkQ1tej2OGlZBvgrqy5yYB5nQjAJPTLJT9VFfJU6aFOTp2kykXrhwbGEQWF0KWFO2PKQ0gpkg8Ui5arlKp3l3Y8g/fePfsR644d2Sld/f9ghfuFXpkAusaoaSxScliCmIygzssoSxszVwNBx4qS5CiGCKSJa9ZkPVcrIbqV01RIjWh6aV1ZxgWh7B5afXX//fIvacW5483iSkyBUAm97qwBhgkFElVkaWuB4BuyUSNDFG5rsP0yDc1sZlVSMlHoa57vY13X/rF3/31uV/9w9obL3782k8t0K2JzUaDojYwNA6mJJNJdEliRB3k7v1kI7FOiJVXwauCgJt7ZsPYZ/3hL54bfnS6jIMiuVuIvkXUjsDNtXdf+G5z6XSfZl7WYGOQq1QimsZc7pbgMCeT1VRVSnB3S7ka/3Q3KU5RYcmbV1BitFgOX335x0tHlp/+D/+xSYN1D2+q6YUUSompNpUNDxu2IoaweQ17qY4xDutzBfqDwItkHYq5plkJEaN18032F9bRq4SIjeVq7a2fv/jI/PHB0RNJH6fq8Fa8F94cqzeWB/GRf/+fzveWLnpvODfXaH2hGa6EIlUXF9ZTr7e0SlvvF0WNeaui1WYpba0v9RbPednACsKnKjenJzYFh2IIfP+jX734vbn33hgUox98+/mNTS099ODdv/9HH731s/defemhp/9iowz94dZLP/i7E59/cvmBx9/7P/9wqB6tp3D6zOt9hd998g/nHnq4UlheP/frHz+7evGimo0jx489/NSfYO7Ixvqln/yv7wzOnf7NCz9YfemVucO9h778p6vhqHn65fPfLlY/SMke+uIfx/vvGmJzAZsr1epbP/nxe+ffKZOtcOG+b3zN7z5aDJvXn/vbe48deev8mbVzZ08u3Hvi69/cXFjJJTruRG2zrR3oriMrj33lyd5d8+n40RO//9VTzzxzz6nPliP11i9Vp99ebIb9xIGPhm//U3/tg0Vobu3dt198drE/+MrX/s2S+9vf/59zNQ4Lrz/3t37h9NPPPPOVZ57+8J3Xf/6Pzxb0cm7ukccfY+ADn33o0Se/dP8jjztHAZcsDB984rHPfeHxj8++zktnSxsWafMYh+//9PsfvPzC7z319JN/9HUMt/7fs88VqgpW1bu//OCnP3rooYee+eqXtl795Ye/enGuF1qrRRj/yZuY9w3T0zZJExxYHyydWl6q5/tbc4OVzzyWLl2KIwzdi9D0Q0U1iRhG6xeYc0MzH1Uunzx5z5f+YDMWn/3tj1599jl3981zm2de/e1/++/83s/VTfXUn69cGmKzCqnoz504tdqfsxP3z5/6XDVaGxp7aa1mz48/0R8tL/a+S8KhEqHYwtuvvfHEF3534e6Hz/TrR5/61z/69v/Q+Y9s4ZDZ6Lce/1rz2NNRFx849dpvPr6QkHINlc7s3AsH7E1iimKTkpMs6zL4Vq+KRVFwa4hR2HKr+7E2c7MqVkMLPZROjtiPtpist2ULFzS/oXKuLJpiPZmqzUtCNZw/claHRqhPHPaF0FtreolcB0Y2f8nDyE1YDvJeUzU2WMfyVr0GhSqwscWK5vXFpqnT3PIqBmeJY4NBiTBa34xLK+7F2tyRi750iKmaP5Qo89Y50P53AOy7U21qYrO1kcSopgnVyEqTB1sdxiKhJ4wCethCwbUB0tJoFIfrTVQTR9Awug+cMRUN3ePF4F6EJSdDGg20dYjDuHlh89x7pdcBQ2LUH8Vl1aVdCgHJqmHRa8zmbCtysw4pcMsQwVCWw14YRqehWVZTVlvD2Ph8P45CP4XVXt1jvVQNP+5VAamXWj9LdqzTpyA2p2gqQMw0VGIYshyx7yjoCmzKZjgfsXbh/fTua/dWH77/zz/Z2trqI82lS1KVWMGGZEXFJi2kBmHleHFo5fQLzz+w8e6Dl9769X/7m7d++Pyiic2wJ4dG1Ufv3LNxdv7im6G5UGC95xfK0Xtlc5a+MRit37P12tLojdFgfunex9752Qsn1k6frC++/M8vxqVwdHkRzcihIg3n00bPR6YEjQAfnzuB7ucdIzZJyAkDVSE0vUNVUdTsmdAEptruOnbq6KNP/PDZ5xeOvrdy9Fh54rFN9BeJzf7y5lwYxgZpUzZI/RNQ2Izlo9/485e+/9wP/v6/NMO1ouj9qy9/ZV1IVsTBkbt/54s/+snP48u/STb/+a9+89jx4y/97J/OvPnyUVvvpaVfv/pO8/orvYefaJ7803u+/GcffPc///Dv/+vqYuQwff4P/7jiwMiNheOHinlBFfuj3pHam4SQRf9k1e39HkOXfnr6wj+ese+9cv5jD7REwGHsoiO53LwzNM3mEytzX3z41Pd+8ebpCqXlCti3aOdk/yGBJNGaQ2vr7n7+yFKvmW8AkT1U876KM2dSOT84cnhzY31YHrZeL26dHVrwwVIBzg23bH21Wji+Xs4t2EavXtu4eB5NtXDXyUtxeS0umHyp3upxlD46x2HFQ4eq+RWEfrOxWm5d6GHI2B/JrDk/Wrzr4uKjc64Hhh+snTt9MXL56MlR6H+M0PfQWz2bFueHxUIvAVsbNZtisJjaIwy7IMVNx63aMJX56JmH7/mD4+kbn1k0T4llaMtX7TK4U81hAQCQrBg0OExaQwyk0iqmuBEHl3q67/jiKBZntVks3T1Cr99seW8ZRcHklC6VC7ayELzpudZ8PhRh4dhhMJ5PIRkMo14CPJ4ZxMPHFxYrXy2bLRZD65WHDxfLtiHbsoW+Nz0/Fpuw2DQuPx3nylMPznuxkUJK6DE11sTl4w09pVSpH+ZWnFWjlJecHIxgd4bCfios0xObgOdgEAVxCIPnS0WNoqchQgVbh9bdFc1dZIqoBahpIoKcoxg8hHmk0DQxDKBi1KQGwS3GNCx8VDoMZULYAiE0wmJdl9ZEeFEnWESwYfTGy9Ix5+tNwEYIm+6DRgZGuSGNWNUwk/foRHIXLGHsst7DoONNYnp2XrvsCUKP1kQXMJcgska/KVCoKhpUgSUELwjK6yqUAEL2S0X25WpciCnSNISgYAFurCgK/cYAw6FaQKoLmmJjCBg5tFUsQOihUkMQKSAxAChFqIAhIZ+JFU1RgBCAACajt/FaEt0xCOIdZedlymWp3laX3C74pHFIlJ3/Apc1yREitivOeH3o7I+uRuh2dNXhuShwPrige0R3Yktegdu+0C04k3XB0L0cxsGqcUXNKdl5U8xhaYeni4Fn5Qjt2Q05qkawDZ13we/2JEZM3JRnfxfAy+3RakTjMUWOG1K2nXPR0ritrN/ZaPmYR3bd5tvH0dkuDwYdpaZ5aO0Uc1ja06Y5kSPGK/6Om40HiJd9zSs+3G6Pyfk/wRYUt5uO89PGR6dtdzxBkSuEIS/7+DLK7bPYnHYaxL6hc39wwo88vt5nz8heYfqmwj7hquwxHLRcsatxx3DeGLzO9QHEnch5k6pju9jhQBLyjiHeVenumKTiQciPvhp3DPF2dH8cUM6789a8TxFmxDvAmBHvAGNGvAOMGfEOMOKEgyj787OTXNu+WE1GG9utNQdSOfvUIarLBZrcw9YlI3ae/uwFZHfsNynM6Dd9RILsTtBuj3tqszHGGw9FIQdUJtrMKDd9GKEib/ckvY2nJNIhBxOYCJlqSq4BgQJbUVU+7LsLk84wHcQkDE2VeRO8Id1kHh3FOIws0EKVgjceGmMdWAV608ZDZzw4RcSarOGBTUzrhQfK6dHkXWhZkJEVAWuSab5h6YjjIw8PokvwU4MYpf6oPjzc+Pr9dw1ZkHBvIJ8MKQsLQMHULJZFHKrvsUztWe0z4k0RUU26/8ihQ3MLXvS8PbU0ET7OAAIAmDkLwwdr1S8vVIQIB2ymck4XUeT8XH9p0QJlEOFC0R1X3yVgCUwNYqi9Gq3Wm6XqOhWw2Zo3XcQQaMrHaKvbKN7lYzEXusjVLZJJyZH3oW0f8ztjvukhBtp49Nu6TpPEkEi4CMZ8mDeF4LC2yNPsmPRpIu5QMIbj7SCZF3MyKi8rLzUTm1NE3GEjynirrrIi06U15gPTc5vp7qj/tGAiHbFLyr4R78duaRACDPTxv7rDv9k9UjbzstwqMpmEbnd0FyIQZMg79nfki92Il/ftEHCMs8HbA+8z19mM824DTphy2n32H1Mku+p0u43rrglInbVHADR5kAc1RALidqG8GW4F7X4Lkww14UISmYTArsGOBLzx7LF2M4xg2bliSpO7cCaur/jw6osbbPYJdXtFs+u139tm12jfbnWCCUFszTIRDkIOI3wXbXDXNU8wWmveIcESTSgF9zaoN35jTLzfzhc32OwT6nYqza7Vvl3sKBTOIpGCQR5yUaxWd9kTzpMAOgR5SB481rGLCs1SKW4NgojoiD6iu2RqN6IJtG4XzK0ST8C4lqscEg3qKZWjjXLYAL0uVWKmsNwaJLBQKquNXlqJsNZ7xW5f6G4ekJ2Il0N2pEtwMhJEE1P9+H0nH0hJRbePcUa7W0Jb3FVg8qUyIFVorYU88LtXYt1ZbOZNvzSRCBIWzE7EzRMnSjF0e5GBsTk/S0y6OWTTC2Dw0caRwACjENrx5PY27uuAu9RT7jZoZy6upQpKEADrIg/oftlM17yZpwMi6FADD7BCLAOsK7CMrNrvyHs7r3md+xkCHWQQSkkwgyKbyxlbM8a7KQig5AgJlkOkzG4VkrQbMaB3XfNEGOCQE7RcMpsOAW0d4PwS2fMyvvOa0/Fmp+8UuWJfOFwSaVBQk5mNysaeCZknd5Gbu5gKbUEMkoiiBM9zxBmTRXT1LvLb+cTBBjOxeQNPl8ggj6jysiOaAIBGZda4HYVlTJkcfDUhF5BxwHNWYFeOA8wJvJh4zRl2gbLHuCEhkmayidN48q+d7t9N2wQyQ+eVj6AQQCMUlES2MfdW27zuMT0zXI3WfibFABi6+jPdmO9uQ++ibW6L58nuJvmfVzeeMd7NoRNvmtAvb8iE3tVUyLK5+5E/4lVtZrh5jCd/K7taam0fxdI22qGH3c7NadFpJWPt5GrGm+HmsD2UQEfEm0uD/f9T7Tl7rUmG9gAAAABJRU5ErkJggg==;" vertex="1" parent="1">
          <mxGeometry x="600" y="420" width="148" height="114" as="geometry" />
        </mxCell>
        <mxCell id="dDyNsK3mXUEXD5AMddpR-17" value="&lt;b&gt;Olric state store&lt;/b&gt;" style="shape=cylinder3;whiteSpace=wrap;html=1;boundedLbl=1;backgroundOutline=1;size=15;fontFamily=Montserrat;fontSource=https%3A%2F%2Ffonts.googleapis.com%2Fcss%3Ffamily%3DMontserrat;" vertex="1" parent="1">
          <mxGeometry x="660" y="620" width="60" height="80" as="geometry" />
        </mxCell>
        <mxCell id="dDyNsK3mXUEXD5AMddpR-19" value="" style="endArrow=classic;startArrow=classic;html=1;fontFamily=Montserrat;fontSource=https%3A%2F%2Ffonts.googleapis.com%2Fcss%3Ffamily%3DMontserrat;exitX=0.5;exitY=0;exitDx=0;exitDy=0;exitPerimeter=0;" edge="1" parent="1" source="dDyNsK3mXUEXD5AMddpR-17">
          <mxGeometry width="50" height="50" relative="1" as="geometry">
            <mxPoint x="640" y="585" as="sourcePoint" />
            <mxPoint x="690" y="535" as="targetPoint" />
          </mxGeometry>
        </mxCell>
      </root>
    </mxGraphModel>
  </diagram>
</mxfile>
